<?xml version="1.0" standalone="no"?>
<!DOCTYPE svg PUBLIC "-//W3C//DTD SVG 20010904//EN"
 "http://www.w3.org/TR/2001/REC-SVG-20010904/DTD/svg10.dtd">
<svg version="1.0" xmlns="http://www.w3.org/2000/svg"
 width="1239.000000pt" height="83.000000pt" viewBox="0 0 1239.000000 83.000000"
 preserveAspectRatio="xMidYMid meet">

<g transform="translate(0.000000,83.000000) scale(0.100000,-0.100000)"
fill="#ffffff" stroke="none">
<path d="M10347 809 c-81 -19 -135 -59 -170 -124 -31 -56 -30 -195 1 -280 60
-164 173 -247 316 -232 98 10 177 70 231 177 35 68 58 175 50 228 l-6 42 177
-2 c155 -3 178 -5 188 -20 15 -24 -18 -83 -64 -114 l-35 -24 -3 70 -3 70 -109
0 -110 0 0 -210 0 -210 110 0 110 0 1 133 0 132 19 -73 c28 -108 91 -223 153
-280 l25 -24 79 53 c43 28 80 54 82 56 3 2 -6 18 -20 36 -13 17 -47 67 -76
110 l-52 78 39 35 c53 48 74 106 67 189 -6 79 -37 133 -94 161 -34 17 -61 19
-238 19 l-199 0 -20 -82 c-11 -46 -23 -83 -26 -83 -4 0 -15 18 -25 41 -23 51
-92 112 -143 127 -45 14 -199 14 -255 1z m145 -179 c73 -21 97 -93 63 -191
-20 -57 -42 -79 -77 -79 -46 0 -68 17 -94 73 -41 89 -25 171 40 197 28 11 25
11 68 0z"/>
<path d="M284 801 c-204 -49 -322 -300 -259 -546 24 -91 72 -188 90 -181 8 3
49 28 90 56 l74 50 -24 48 c-13 26 -26 64 -30 85 l-7 37 66 0 66 0 0 -85 0
-85 105 0 105 0 0 210 0 210 -105 0 -105 0 0 -30 c0 -29 -1 -30 -47 -30 l-46
0 19 21 c39 44 91 59 213 59 113 0 113 0 107 23 -3 12 -13 55 -23 95 l-17 72
-120 -1 c-67 -1 -135 -4 -152 -8z"/>
<path d="M2680 730 l0 -80 -68 0 c-136 0 -198 -62 -196 -195 1 -82 18 -127 70
-185 66 -72 99 -84 257 -88 l137 -4 0 316 0 316 -100 0 -100 0 0 -80z m0 -320
c0 -45 -3 -60 -14 -60 -22 0 -56 49 -56 80 0 34 6 40 42 40 28 0 28 -1 28 -60z"/>
<path d="M2930 740 l0 -70 100 0 100 0 0 70 0 70 -100 0 -100 0 0 -70z"/>
<path d="M5100 495 l0 -315 100 0 100 0 0 315 0 315 -100 0 -100 0 0 -315z"/>
<path d="M6184 794 c-39 -19 -61 -57 -70 -122 -4 -34 -11 -52 -20 -52 -11 0
-14 -17 -14 -70 0 -56 3 -70 15 -70 13 0 15 -23 15 -150 l0 -150 100 0 100 0
0 150 0 150 30 0 c28 0 30 -2 30 -38 0 -90 54 -180 138 -230 44 -25 56 -27
185 -30 l137 -4 0 236 0 236 -163 0 c-149 0 -167 -2 -207 -22 -25 -13 -55 -38
-67 -56 l-22 -33 -3 43 c-2 36 -7 44 -25 46 -43 6 -23 22 27 22 28 0 50 3 50
8 0 4 -7 40 -17 80 l-17 72 -85 0 c-56 0 -97 -6 -117 -16z m446 -363 c0 -27 3
-56 6 -65 9 -23 -22 -20 -46 4 -35 35 -24 110 16 110 22 0 24 -4 24 -49z"/>
<path d="M7610 740 l0 -70 95 0 95 0 0 70 0 70 -95 0 -95 0 0 -70z"/>
<path d="M7860 495 l0 -315 95 0 95 0 0 315 0 315 -95 0 -95 0 0 -315z"/>
<path d="M8100 495 l0 -315 100 0 100 0 0 315 0 315 -100 0 -100 0 0 -315z"/>
<path d="M9250 795 c-60 -19 -122 -73 -150 -132 -32 -66 -32 -184 -1 -265 29
-75 99 -149 176 -185 57 -27 68 -28 228 -31 l167 -4 0 211 0 211 -135 0 -135
0 0 -95 0 -95 30 0 c23 0 30 -4 30 -20 0 -24 -26 -26 -73 -6 -66 27 -119 124
-98 179 19 50 43 57 203 57 96 0 148 4 148 10 0 6 -10 49 -21 95 l-21 85 -152
-1 c-99 0 -167 -5 -196 -14z"/>
<path d="M9720 495 l0 -315 193 0 193 0 22 84 c12 46 22 89 22 95 0 7 -36 11
-110 11 l-110 0 0 220 0 220 -105 0 -105 0 0 -315z"/>
<path d="M11369 788 c5 -13 43 -97 85 -188 l76 -164 0 -136 c0 -136 10 -199
33 -218 9 -8 35 4 97 43 l84 54 -3 119 -3 120 91 187 c50 104 91 192 91 197 0
4 -51 8 -114 8 l-114 0 -20 -62 c-11 -35 -24 -79 -30 -98 l-10 -35 -1 31 c-1
18 -10 62 -21 98 l-21 66 -114 0 -115 0 9 -22z"/>
<path d="M12190 605 l0 -206 98 3 97 3 3 203 2 202 -100 0 -100 0 0 -205z"/>
<path d="M4072 650 c-105 -15 -159 -92 -150 -213 6 -69 38 -155 71 -186 48
-44 115 -64 221 -65 l99 -1 19 70 c23 91 23 95 -8 95 l-25 0 24 33 c84 112 72
226 -27 256 -46 14 -163 19 -224 11z m107 -174 c14 -17 5 -41 -29 -71 -18 -16
-23 -17 -30 -5 -32 51 23 120 59 76z"/>
<path d="M8492 650 c-105 -15 -159 -92 -150 -213 6 -69 38 -155 71 -186 48
-44 115 -64 221 -65 l99 -1 19 70 c23 91 23 95 -8 95 l-25 0 24 33 c84 112 72
226 -27 256 -46 14 -163 19 -224 11z m107 -174 c14 -17 5 -41 -29 -71 -18 -16
-23 -17 -30 -5 -32 51 23 120 59 76z"/>
<path d="M695 631 c-53 -24 -81 -57 -95 -110 -28 -108 45 -268 145 -315 19
-10 54 -21 78 -25 33 -7 16 -9 -76 -10 -108 -1 -118 -3 -113 -18 5 -19 20 -78
30 -126 l7 -28 147 3 c247 5 242 -2 242 376 l0 272 -162 0 c-137 0 -169 -3
-203 -19z m165 -216 c0 -67 -13 -83 -39 -51 -37 45 -29 116 14 116 24 0 25 -2
25 -65z"/>
<path d="M1110 415 l0 -235 100 0 100 0 0 118 c0 131 5 143 68 161 30 9 30 9
37 -37 13 -89 72 -173 150 -215 34 -18 61 -22 178 -25 l137 -4 0 236 0 236
-167 0 c-148 0 -172 -2 -209 -20 -43 -21 -71 -53 -84 -99 -6 -18 -9 -5 -9 47
-1 66 -3 72 -21 72 -12 0 -34 -7 -50 -15 -27 -14 -30 -14 -30 0 0 12 -17 15
-100 15 l-100 0 0 -235z m570 0 c0 -73 -14 -84 -49 -39 -24 30 -25 42 -11 78
7 19 17 26 35 26 24 0 25 -2 25 -65z"/>
<path d="M1930 416 l0 -236 100 0 100 0 0 145 c0 136 1 145 19 145 28 0 31
-18 31 -161 l0 -129 101 0 101 0 -4 173 c-4 196 -14 231 -77 269 -33 21 -50
23 -203 26 l-168 4 0 -236z"/>
<path d="M2930 415 l0 -235 100 0 100 0 0 235 0 235 -100 0 -100 0 0 -235z"/>
<path d="M3238 634 c-23 -10 -42 -27 -52 -49 -26 -54 -20 -87 24 -146 56 -75
54 -89 -16 -89 -48 0 -55 -2 -50 -17 3 -10 13 -49 22 -86 l17 -68 133 3 c124
3 134 4 158 27 15 14 31 41 37 61 13 43 -2 84 -52 142 -40 47 -34 68 21 68 46
0 46 -1 22 95 l-18 70 -105 2 c-75 2 -114 -2 -141 -13z"/>
<path d="M3613 635 c-36 -16 -63 -60 -63 -105 0 -36 12 -61 52 -110 44 -55 39
-70 -27 -70 -30 0 -55 -3 -55 -7 0 -5 4 -24 9 -43 6 -19 15 -54 21 -77 l11
-43 120 0 c166 0 209 25 209 121 0 40 -6 53 -40 92 -22 25 -40 55 -40 66 0 18
6 21 45 21 49 0 49 0 36 50 -6 19 -15 54 -21 78 l-11 42 -107 0 c-68 -1 -118
-6 -139 -15z"/>
<path d="M4435 638 c-9 -26 -35 -136 -35 -147 0 -7 23 -11 60 -11 33 0 60 -2
60 -4 0 -2 -21 -50 -46 -107 -26 -57 -55 -123 -65 -146 l-18 -43 193 0 193 0
21 79 c12 43 22 81 22 85 0 3 -29 6 -65 6 -36 0 -65 2 -65 5 0 4 35 85 104
238 l26 57 -190 0 c-144 0 -192 -3 -195 -12z"/>
<path d="M5430 628 c-71 -37 -85 -64 -85 -166 0 -72 4 -95 23 -132 31 -58 57
-86 112 -118 42 -25 55 -27 183 -30 l137 -4 0 236 0 236 -163 0 c-149 0 -166
-2 -207 -22z m174 -170 c12 -46 7 -108 -9 -108 -39 0 -68 66 -49 114 10 25 51
20 58 -6z"/>
<path d="M6880 416 l0 -236 100 0 100 0 0 145 c0 138 1 145 20 145 19 0 20 -7
20 -145 l0 -145 100 0 100 0 0 145 c0 117 3 145 14 145 21 0 26 -33 26 -167
l0 -123 101 0 102 0 -5 173 c-4 150 -7 177 -26 213 -38 75 -56 79 -374 82
l-278 3 0 -235z"/>
<path d="M7610 415 l0 -235 95 0 95 0 0 235 0 235 -95 0 -95 0 0 -235z"/>
<path d="M12187 374 c-4 -4 -7 -49 -7 -101 l0 -93 105 0 106 0 -3 98 -3 97
-95 3 c-53 1 -99 0 -103 -4z"/>
</g>
</svg>
