<?xml version="1.0" standalone="no"?>
<!DOCTYPE svg PUBLIC "-//W3C//DTD SVG 20010904//EN"
 "http://www.w3.org/TR/2001/REC-SVG-20010904/DTD/svg10.dtd">
<svg version="1.0" xmlns="http://www.w3.org/2000/svg"
 width="400.000000pt" height="400.000000pt" viewBox="0 0 400.000000 400.000000"
 preserveAspectRatio="xMidYMid meet">

<g transform="translate(0.000000,400.000000) scale(0.100000,-0.100000)"
fill="#ffffff" stroke="none">
<path d="M1250 3728 c-26 -28 -26 -82 0 -108 20 -20 33 -20 750 -20 717 0 730
0 750 20 26 26 26 80 0 108 l-21 22 -729 0 -729 0 -21 -22z"/>
<path d="M871 3644 c-145 -39 -224 -155 -238 -349 -15 -211 71 -444 225 -606
94 -101 198 -174 355 -254 146 -74 201 -113 248 -178 66 -91 15 -207 -92 -207
-24 0 -29 -4 -29 -24 0 -35 35 -56 93 -56 57 0 94 17 134 64 74 84 44 219 -76
336 -33 32 -113 88 -190 134 -168 100 -235 150 -314 236 -151 166 -215 341
-205 562 6 147 56 225 149 235 110 11 187 -109 129 -202 -20 -33 -53 -51 -100
-57 -35 -4 -41 -57 -9 -89 18 -18 30 -21 79 -17 73 5 118 37 154 110 68 137
-9 319 -155 362 -63 19 -87 19 -158 0z"/>
<path d="M2966 3644 c-64 -20 -137 -92 -159 -159 -36 -105 -7 -224 70 -282 49
-38 141 -45 172 -14 32 32 26 85 -9 89 -47 6 -80 24 -100 57 -58 93 19 213
129 202 93 -10 143 -88 149 -235 10 -221 -54 -396 -205 -562 -79 -86 -146
-136 -314 -236 -77 -46 -157 -102 -190 -134 -120 -117 -150 -252 -76 -336 40
-47 77 -64 134 -64 58 0 93 21 93 56 0 20 -5 24 -29 24 -107 0 -158 116 -92
207 47 65 102 104 248 178 157 80 261 153 355 254 154 162 240 395 225 606
-15 197 -94 311 -243 350 -71 18 -95 18 -158 -1z"/>
<path d="M1300 3513 c0 -77 19 -269 40 -400 86 -539 290 -953 526 -1069 52
-26 70 -29 149 -29 79 0 96 4 145 29 265 138 477 620 545 1236 8 74 15 168 15
208 l0 72 -710 0 -710 0 0 -47z"/>
<path d="M1878 1968 c-24 -20 -28 -44 -12 -67 14 -20 24 -21 144 -21 135 0
160 8 160 49 0 41 -30 51 -156 51 -81 0 -125 -4 -136 -12z"/>
<path d="M1870 1768 c-33 -208 -109 -385 -214 -498 -20 -21 -36 -42 -36 -45 0
-3 176 -5 390 -5 215 0 390 4 390 8 0 5 -12 19 -26 33 -98 92 -198 323 -222
514 l-7 60 -132 3 -131 3 -12 -73z"/>
<path d="M1510 1145 l0 -35 505 0 505 0 0 35 0 35 -505 0 -505 0 0 -35z"/>
<path d="M1460 980 c0 -89 0 -90 25 -90 l25 0 0 -225 0 -225 505 0 505 0 0
224 0 225 23 3 c21 3 22 8 25 91 l3 87 -556 0 -555 0 0 -90z m850 -265 l0
-175 -297 2 -298 3 -3 173 -2 172 300 0 300 0 0 -175z"/>
<path d="M1430 325 l0 -75 580 0 580 0 0 75 0 75 -580 0 -580 0 0 -75z"/>
</g>
</svg>
