<?xml version="1.0" standalone="no"?>
<!DOCTYPE svg PUBLIC "-//W3C//DTD SVG 20010904//EN"
 "http://www.w3.org/TR/2001/REC-SVG-20010904/DTD/svg10.dtd">
<svg version="1.0" xmlns="http://www.w3.org/2000/svg"
 width="224.000000pt" height="61.000000pt" viewBox="0 0 224.000000 61.000000"
 preserveAspectRatio="xMidYMid meet">

<g transform="translate(0.000000,61.000000) scale(0.100000,-0.100000)"
fill="#E1A128" stroke="none">
<path d="M2033 579 l-93 -30 0 -39 c0 -33 -3 -40 -20 -40 -18 0 -20 -7 -20
-85 0 -78 2 -85 20 -85 18 0 20 -7 20 -87 1 -157 49 -212 187 -213 l62 0 16
58 c9 31 20 69 25 84 8 26 8 27 -38 30 l-47 3 -3 63 -3 62 36 0 35 0 0 85 0
85 -35 0 -35 0 0 70 c0 39 -3 70 -7 69 -5 0 -50 -14 -100 -30z"/>
<path d="M165 471 c-131 -16 -188 -114 -154 -270 17 -78 58 -134 123 -166 50
-24 69 -28 158 -29 l101 -1 22 83 23 82 -30 0 -30 0 28 33 c37 44 54 88 54
141 0 53 -33 99 -83 114 -43 14 -151 20 -212 13z m94 -175 c14 -17 5 -41 -29
-71 -18 -16 -23 -17 -30 -5 -15 23 -12 57 6 74 19 20 38 20 53 2z"/>
<path d="M1091 470 c-57 -9 -92 -29 -125 -74 -17 -23 -21 -42 -21 -114 0 -190
82 -270 286 -280 l97 -5 16 52 c8 29 18 68 22 87 6 31 4 34 -19 34 l-26 0 34
50 c38 57 50 103 41 154 -8 42 -53 83 -99 90 -71 11 -155 13 -206 6z m107
-190 c4 -34 -44 -83 -58 -60 -23 36 -1 93 33 88 15 -2 23 -11 25 -28z"/>
<path d="M452 453 c3 -10 34 -116 69 -236 l64 -217 115 2 114 3 68 225 c37
124 68 229 68 233 0 4 -46 6 -102 5 l-103 -3 -17 -75 c-9 -41 -17 -90 -17
-107 -1 -40 -21 -44 -21 -5 0 15 -9 63 -18 107 l-18 80 -103 3 c-95 2 -103 1
-99 -15z"/>
<path d="M1430 235 l0 -235 100 0 100 0 0 146 c0 145 0 145 23 142 21 -3 22
-6 25 -145 l3 -143 100 0 100 0 -3 184 c-3 210 -7 222 -88 264 -40 20 -58 22
-202 22 l-158 0 0 -235z"/>
</g>
</svg>
