<?xml version="1.0" standalone="no"?>
<!DOCTYPE svg PUBLIC "-//W3C//DTD SVG 20010904//EN"
 "http://www.w3.org/TR/2001/REC-SVG-20010904/DTD/svg10.dtd">
<svg version="1.0" xmlns="http://www.w3.org/2000/svg"
 width="629.000000pt" height="77.000000pt" viewBox="0 0 629.000000 77.000000"
 preserveAspectRatio="xMidYMid meet">

<g transform="translate(0.000000,77.000000) scale(0.100000,-0.100000)"
fill="#ffffff" stroke="none">
<path d="M1260 744 c-105 -28 -168 -106 -177 -218 -15 -175 90 -363 223 -402
113 -32 219 -3 294 83 67 76 117 231 103 318 l-6 35 175 0 c190 0 207 -5 194
-53 -5 -22 -49 -71 -89 -100 -18 -12 -18 -16 -2 -82 29 -127 146 -322 185
-309 20 7 160 98 160 104 0 3 -19 30 -41 60 -23 30 -57 79 -76 108 l-34 52 37
32 c47 42 74 100 74 162 0 106 -48 182 -131 205 -29 8 -105 11 -223 9 l-180
-3 -8 -35 c-5 -19 -16 -59 -24 -89 l-15 -54 -23 49 c-49 103 -124 144 -266
143 -52 0 -120 -7 -150 -15z m162 -174 c73 -21 94 -83 64 -184 -18 -61 -41
-86 -78 -86 -46 0 -68 17 -94 73 -41 89 -25 171 40 197 28 11 25 11 68 0z"/>
<path d="M180 735 c-60 -19 -123 -74 -151 -133 -19 -38 -24 -63 -23 -127 1
-148 66 -255 192 -317 66 -33 68 -33 234 -36 l168 -4 0 211 0 211 -135 0 -135
0 0 -95 0 -95 30 0 c23 0 30 -4 30 -20 0 -15 -7 -20 -25 -20 -54 0 -112 47
-140 114 -20 47 -12 89 22 116 23 18 41 20 174 20 96 0 149 4 149 10 0 6 -10
49 -21 95 l-21 85 -152 -1 c-99 0 -167 -5 -196 -14z"/>
<path d="M650 435 l0 -315 193 0 192 0 23 87 c12 49 22 91 22 96 0 4 -49 7
-110 7 l-110 0 0 220 0 220 -105 0 -105 0 0 -315z"/>
<path d="M2293 738 c3 -7 42 -93 86 -190 l81 -177 0 -133 c0 -124 8 -184 29
-216 6 -11 28 -1 96 41 l88 55 -2 121 -2 121 90 190 c50 104 91 192 91 195 0
3 -51 5 -114 5 l-113 0 -21 -57 c-11 -32 -24 -76 -28 -98 l-8 -40 -7 40 c-4
23 -15 67 -24 98 l-16 57 -116 0 c-88 0 -114 -3 -110 -12z"/>
<path d="M2876 678 c-4 -40 -9 -90 -12 -110 l-6 -38 65 0 64 0 9 110 9 110
-61 0 -62 0 -6 -72z"/>
<path d="M3680 435 l0 -315 223 0 222 0 23 82 c12 46 22 89 22 96 0 9 -34 12
-135 12 -113 0 -135 2 -135 15 0 12 16 15 88 15 l87 0 26 88 26 87 -113 3
c-106 2 -114 4 -114 22 0 19 7 20 130 20 72 0 130 1 130 3 0 2 -6 26 -14 53
-8 27 -20 68 -26 92 l-11 42 -214 0 -215 0 0 -315z"/>
<path d="M4159 723 c5 -15 43 -157 86 -315 l78 -288 118 0 c103 0 118 2 123
18 3 9 39 143 81 297 42 154 78 288 81 298 5 15 -5 17 -105 17 -106 0 -111 -1
-116 -22 -16 -69 -55 -295 -55 -320 0 -17 -4 -27 -10 -23 -5 3 -10 21 -10 38
-1 18 -13 97 -28 177 l-27 145 -112 3 -112 3 8 -28z"/>
<path d="M4740 435 l0 -315 218 0 219 0 24 93 25 92 -138 3 c-114 2 -138 5
-138 17 0 12 17 15 88 15 l89 0 22 74 c11 41 24 82 27 90 5 14 -9 16 -110 16
-109 0 -116 1 -116 20 0 19 7 20 130 20 130 0 130 0 125 23 -3 12 -14 54 -24
92 l-17 70 -212 3 -212 2 0 -315z"/>
<path d="M5252 403 c3 -293 5 -351 18 -370 l16 -21 79 49 c44 26 82 50 85 51
3 2 3 80 0 173 -3 94 -5 171 -4 173 1 2 31 -35 68 -82 l66 -85 0 -85 0 -86
105 0 105 0 0 220 0 220 70 0 70 0 0 -220 0 -220 105 0 105 0 0 220 0 220 70
0 c39 0 70 3 70 8 0 4 -10 46 -22 95 l-23 87 -199 -2 -200 -3 -22 -85 -22 -85
-1 88 -1 87 -105 0 -104 0 -3 -77 -3 -77 -58 77 -57 77 -106 0 -105 0 3 -347z"/>
<path d="M3113 575 c-38 -16 -63 -60 -63 -111 0 -28 10 -50 41 -90 52 -67 48
-84 -21 -84 -55 0 -54 1 -41 -50 6 -19 15 -54 21 -77 l11 -43 120 0 c128 0
164 10 193 52 19 26 21 90 5 121 -7 12 -27 39 -45 59 -43 48 -37 68 22 68 48
0 48 0 35 50 -6 19 -15 54 -21 78 l-11 42 -107 0 c-68 -1 -118 -6 -139 -15z"/>
<path d="M1740 330 l0 -210 105 0 105 0 0 210 0 210 -105 0 -105 0 0 -210z"/>
</g>
</svg>
