<?xml version="1.0" standalone="no"?>
<!DOCTYPE svg PUBLIC "-//W3C//DTD SVG 20010904//EN"
 "http://www.w3.org/TR/2001/REC-SVG-20010904/DTD/svg10.dtd">
<svg version="1.0" xmlns="http://www.w3.org/2000/svg"
 width="512.000000pt" height="512.000000pt" viewBox="0 0 512.000000 512.000000"
 preserveAspectRatio="xMidYMid meet">

<g transform="translate(0.000000,512.000000) scale(0.100000,-0.100000)"
fill="#ffffff" stroke="none">
<path d="M3175 4387 c-105 -35 -1306 -712 -1399 -788 -57 -48 -86 -119 -86
-211 0 -94 14 -131 71 -193 65 -70 121 -95 217 -95 l79 0 294 151 c526 270
521 268 595 278 72 10 131 4 174 -19 54 -28 128 -97 495 -460 209 -207 456
-449 548 -538 160 -154 172 -163 235 -183 40 -12 94 -20 132 -20 61 0 441 58
536 82 l44 11 0 775 c0 666 -2 774 -14 770 -22 -9 -545 -123 -695 -152 -118
-23 -140 -24 -193 -14 -76 15 -104 34 -353 245 -398 336 -441 364 -568 370
-42 2 -88 -2 -112 -9z"/>
<path d="M1790 4360 c-150 -37 -382 -146 -690 -323 -96 -56 -191 -107 -210
-114 -59 -21 -246 -17 -326 8 -60 19 -489 166 -537 184 -16 7 -17 -38 -15
-881 l3 -887 129 -43 c71 -24 132 -41 137 -39 4 3 24 36 45 73 21 37 67 96
104 133 109 108 239 159 401 159 210 0 370 -102 468 -297 27 -54 38 -66 83
-89 119 -60 178 -120 241 -246 29 -57 39 -66 113 -110 118 -69 208 -178 247
-300 3 -9 37 -33 76 -53 184 -97 284 -259 286 -464 l1 -94 82 -78 c92 -87 127
-103 212 -97 70 5 127 39 167 100 24 36 28 51 28 118 0 92 8 80 -199 303 -141
153 -167 193 -136 212 5 3 110 -92 232 -211 123 -119 236 -223 252 -231 38
-20 154 -19 194 1 66 34 122 127 122 203 0 78 -25 114 -231 332 -76 79 -147
161 -159 182 l-21 39 22 0 c14 0 71 -49 173 -148 300 -293 337 -321 420 -322
116 0 209 77 230 192 16 86 -27 155 -224 362 -139 147 -185 205 -171 219 19
19 55 -9 228 -175 227 -217 235 -223 327 -222 78 0 114 14 158 61 60 63 77
177 37 256 -14 28 -198 218 -543 563 -491 491 -524 522 -576 540 -125 42 -165
31 -570 -151 -277 -125 -338 -145 -433 -145 -138 0 -242 46 -343 152 -158 164
-189 390 -82 590 68 127 201 221 725 512 56 31 105 61 108 66 9 15 -77 81
-150 115 -135 64 -294 80 -435 45z"/>
<path d="M695 2372 c-142 -67 -261 -268 -241 -408 12 -91 57 -147 143 -180 43
-17 50 -17 135 0 50 9 93 15 95 12 3 -3 -4 -33 -16 -67 -36 -106 -21 -189 45
-251 55 -51 117 -60 230 -32 36 9 67 14 70 11 3 -3 -4 -38 -16 -78 -28 -92
-23 -154 14 -207 55 -80 140 -100 287 -66 39 9 72 14 74 12 2 -1 -8 -30 -22
-63 -30 -74 -39 -150 -24 -198 15 -46 88 -112 137 -126 123 -34 286 9 391 103
92 83 128 192 103 312 -11 50 -20 65 -69 115 -66 65 -101 79 -206 79 l-70 0 0
93 c-1 104 -14 142 -71 201 -51 52 -85 66 -180 73 l-84 6 0 79 c0 86 -12 126
-55 176 -43 51 -99 75 -190 81 l-80 6 -5 90 c-7 103 -21 137 -79 187 -86 73
-212 89 -316 40z"/>
</g>
</svg>
