<?xml version="1.0" standalone="no"?>
<!DOCTYPE svg PUBLIC "-//W3C//DTD SVG 20010904//EN"
 "http://www.w3.org/TR/2001/REC-SVG-20010904/DTD/svg10.dtd">
<svg version="1.0" xmlns="http://www.w3.org/2000/svg"
 width="286.000000pt" height="77.000000pt" viewBox="0 0 286.000000 77.000000"
 preserveAspectRatio="xMidYMid meet">

<g transform="translate(0.000000,77.000000) scale(0.100000,-0.100000)"
fill="#000000" stroke="none">
<path d="M1260 744 c-105 -28 -168 -106 -177 -218 -15 -175 90 -363 223 -402
113 -32 219 -3 294 83 67 76 117 231 103 318 l-6 35 175 0 c190 0 207 -5 194
-53 -5 -22 -49 -71 -89 -100 -18 -12 -18 -16 -2 -82 29 -127 146 -322 185
-309 20 7 160 98 160 104 0 3 -19 30 -41 60 -23 30 -57 79 -76 108 l-34 52 37
32 c47 42 74 100 74 162 0 106 -48 182 -131 205 -29 8 -105 11 -223 9 l-180
-3 -8 -35 c-5 -19 -16 -59 -24 -89 l-15 -54 -23 49 c-49 103 -124 144 -266
143 -52 0 -120 -7 -150 -15z m162 -174 c73 -21 94 -83 64 -184 -18 -61 -41
-86 -78 -86 -46 0 -68 17 -94 73 -41 89 -25 171 40 197 28 11 25 11 68 0z"/>
<path d="M180 735 c-60 -19 -123 -74 -151 -133 -19 -38 -24 -63 -23 -127 1
-148 66 -255 192 -317 66 -33 68 -33 234 -36 l168 -4 0 211 0 211 -135 0 -135
0 0 -95 0 -95 30 0 c23 0 30 -4 30 -20 0 -15 -7 -20 -25 -20 -54 0 -112 47
-140 114 -20 47 -12 89 22 116 23 18 41 20 174 20 96 0 149 4 149 10 0 6 -10
49 -21 95 l-21 85 -152 -1 c-99 0 -167 -5 -196 -14z"/>
<path d="M650 435 l0 -315 193 0 192 0 23 87 c12 49 22 91 22 96 0 4 -49 7
-110 7 l-110 0 0 220 0 220 -105 0 -105 0 0 -315z"/>
<path d="M2293 738 c3 -7 42 -93 86 -190 l81 -177 0 -133 c0 -124 8 -184 29
-216 6 -11 28 -1 96 41 l88 55 -2 121 -2 121 90 190 c50 104 91 192 91 195 0
3 -51 5 -114 5 l-113 0 -21 -57 c-11 -32 -24 -76 -28 -98 l-8 -40 -7 40 c-4
23 -15 67 -24 98 l-16 57 -116 0 c-88 0 -114 -3 -110 -12z"/>
<path d="M1740 330 l0 -210 105 0 105 0 0 210 0 210 -105 0 -105 0 0 -210z"/>
</g>
</svg>
