<?xml version="1.0" standalone="no"?>
<svg version="1.0" xmlns="http://www.w3.org/2000/svg"
 width="553.000000pt" height="598.000000pt" viewBox="0 0 553.000000 598.000000"
 preserveAspectRatio="xMidYMid meet">

<g transform="translate(0.000000,598.000000) scale(0.100000,-0.100000)"
fill="#ffffff" stroke="none">
<path d="M2700 5935 c-12 -27 -35 -84 -52 -125 -17 -41 -119 -248 -226 -460
-107 -212 -263 -520 -347 -685 -157 -312 -199 -415 -234 -592 -39 -189 -22
-412 42 -573 15 -36 61 -129 103 -208 42 -79 74 -146 70 -149 -3 -3 -27 14
-53 37 -165 145 -452 283 -678 325 -130 25 -284 34 -403 24 -256 -21 -453
-111 -631 -291 -278 -280 -367 -674 -226 -1008 99 -235 327 -424 641 -533 111
-38 242 -72 250 -64 3 3 -11 37 -30 76 -110 216 -76 468 84 632 165 169 423
181 713 33 157 -80 306 -207 394 -336 l47 -68 597 0 598 0 41 59 c97 144 244
269 414 351 293 142 540 128 699 -39 96 -101 147 -230 147 -376 0 -98 -18
-172 -65 -265 -24 -48 -31 -70 -22 -70 31 0 268 71 342 102 491 208 713 634
568 1092 -85 271 -296 513 -540 622 -138 61 -216 77 -405 82 -201 5 -310 -9
-482 -60 -258 -76 -526 -249 -710 -456 -31 -34 -56 -58 -56 -51 0 6 60 127
134 268 79 149 145 289 159 336 83 268 48 559 -108 890 -28 61 -122 246 -207
410 -339 653 -440 857 -514 1040 l-32 80 -22 -50z m83 -327 c32 -68 181 -361
331 -653 289 -561 330 -647 370 -788 35 -120 46 -194 46 -309 0 -187 -31 -289
-164 -538 -129 -240 -166 -317 -234 -477 -95 -220 -170 -463 -211 -678 l-18
-90 -180 -3 -181 -2 -7 52 c-12 87 -73 319 -121 459 -67 196 -126 332 -243
559 -252 490 -254 495 -254 720 0 129 4 158 31 262 42 162 86 259 343 759 123
240 269 529 324 642 55 113 102 206 105 206 3 1 32 -54 63 -121z m-1471 -2198
c338 -71 646 -266 866 -548 70 -90 117 -198 187 -429 27 -89 85 -333 85 -358
0 -3 -54 -5 -119 -5 l-119 0 -34 48 c-132 183 -337 329 -573 408 -94 31 -127
38 -225 42 -195 8 -307 -33 -430 -157 -87 -87 -131 -164 -160 -277 -22 -85
-27 -238 -9 -313 5 -24 8 -45 6 -48 -8 -7 -154 50 -240 95 -433 227 -574 668
-347 1089 139 257 376 429 655 473 96 15 346 4 457 -20z m3443 1 c305 -80 553
-325 646 -637 30 -101 36 -269 14 -370 -53 -239 -209 -422 -470 -551 -89 -44
-203 -88 -210 -81 -3 2 0 20 5 38 30 106 18 277 -29 401 -46 122 -157 246
-271 304 -145 73 -360 74 -554 1 -96 -36 -232 -109 -301 -161 -79 -59 -197
-177 -238 -237 l-32 -47 -157 -1 c-106 0 -158 4 -158 11 0 27 55 224 87 309
192 515 580 882 1059 1005 143 36 220 44 384 40 105 -3 167 -9 225 -24z"/>
<path d="M2039 1896 c-63 -22 -108 -56 -134 -100 -48 -82 -25 -191 52 -249 77
-58 74 -58 844 -55 l704 3 55 31 c176 99 143 318 -56 373 -61 17 -1417 14
-1465 -3z m1468 -98 c70 -39 92 -102 51 -153 -44 -56 -28 -55 -782 -55 -468 0
-704 3 -723 11 -122 46 -99 183 35 210 21 4 341 6 712 6 619 -2 678 -3 707
-19z"/>
<path d="M1555 1834 c-240 -38 -413 -206 -461 -449 -51 -263 80 -522 328 -643
225 -110 506 -121 738 -27 46 19 86 32 88 30 9 -8 -40 -74 -85 -116 -27 -24
-76 -62 -110 -84 -35 -22 -63 -43 -63 -47 0 -5 55 -8 123 -8 106 1 190 11 300
36 19 5 27 2 27 -7 0 -22 60 -135 135 -254 38 -60 86 -145 107 -187 21 -43 42
-78 47 -78 4 0 23 33 41 73 18 39 64 127 102 194 37 66 84 155 104 196 l35 75
62 -20 c71 -22 244 -34 331 -24 l58 8 -89 57 c-49 32 -103 75 -121 96 -28 35
-85 155 -77 163 2 2 23 -9 47 -26 68 -47 157 -88 243 -113 68 -20 103 -23 235
-23 132 -1 167 3 235 22 308 88 486 285 502 558 18 294 -157 531 -437 590 -56
12 -103 14 -185 10 -60 -4 -113 -10 -117 -14 -4 -4 18 -58 49 -119 54 -106 57
-116 61 -201 4 -76 1 -94 -17 -130 -77 -151 -342 -161 -442 -16 l-30 44 -557
-1 -557 0 -30 -42 c-60 -82 -184 -124 -294 -97 -192 46 -225 242 -83 489 32
56 37 71 25 75 -20 8 -231 16 -268 10z m120 -111 c-45 -107 -58 -163 -59 -244
0 -73 4 -93 27 -142 35 -70 101 -130 176 -158 47 -17 71 -20 151 -16 114 5
168 26 239 92 l48 45 118 0 118 0 -7 -31 c-3 -17 -6 -48 -6 -69 0 -31 -8 -46
-46 -86 -25 -27 -60 -81 -79 -120 -38 -79 -78 -116 -194 -173 -142 -72 -353
-95 -521 -56 -115 26 -253 96 -321 164 -185 186 -187 501 -4 687 79 79 181
121 304 123 56 1 62 -1 56 -16z m2346 1 c203 -60 323 -229 322 -454 0 -245
-161 -428 -439 -501 -103 -26 -277 -28 -384 -4 -239 54 -420 218 -501 454 -30
85 -36 81 112 81 l132 0 44 -41 c71 -65 142 -93 248 -97 124 -5 189 19 267 98
42 43 60 71 72 111 28 94 16 207 -34 324 l-19 45 63 0 c34 0 87 -7 117 -16z
m-1147 -456 c3 -18 8 -59 11 -91 6 -51 11 -63 43 -92 55 -49 96 -125 142 -260
23 -66 55 -144 71 -172 16 -29 29 -55 29 -57 0 -9 -110 22 -133 37 -13 8 -41
41 -63 72 l-39 58 -11 -109 c-8 -85 -17 -121 -39 -164 -37 -72 -144 -263 -154
-273 -9 -9 -138 193 -179 280 -22 48 -28 77 -32 163 l-5 105 -45 -62 c-25 -34
-60 -69 -78 -77 -41 -20 -112 -36 -112 -26 0 4 16 34 35 66 19 32 49 94 65
138 73 193 97 234 160 279 16 11 23 32 30 98 6 46 10 92 10 102 0 15 14 17
145 17 l144 0 5 -32z"/>
</g>
</svg>
