<?xml version="1.0" standalone="no"?>
<!DOCTYPE svg PUBLIC "-//W3C//DTD SVG 20010904//EN"
 "http://www.w3.org/TR/2001/REC-SVG-20010904/DTD/svg10.dtd">
<svg version="1.0" xmlns="http://www.w3.org/2000/svg"
 width="900.000000pt" height="1440.000000pt" viewBox="0 0 900.000000 1440.000000"
 preserveAspectRatio="xMidYMid meet">

<g transform="translate(0.000000,1440.000000) scale(0.100000,-0.100000)"
fill="#ffffff" stroke="none">
<path d="M3335 14259 c-844 -62 -1639 -432 -2225 -1035 -535 -551 -864 -1247
-956 -2024 -21 -175 -24 -543 -6 -705 79 -702 313 -1272 752 -1837 87 -111
392 -416 510 -509 376 -296 767 -501 1204 -628 1082 -317 2237 -83 3131 633
55 44 158 137 229 206 573 558 923 1274 1022 2090 23 185 22 567 0 755 -135
1116 -767 2070 -1734 2618 -576 326 -1275 484 -1927 436z m582 -624 c618 -81
1176 -348 1615 -774 251 -242 437 -497 583 -796 149 -304 226 -558 277 -910
20 -141 17 -582 -5 -725 -106 -676 -379 -1212 -854 -1670 -1100 -1065 -2843
-1062 -3942 5 -469 456 -751 1008 -848 1660 -22 152 -25 590 -5 735 97 678
374 1230 853 1695 473 460 1089 740 1749 794 148 12 426 5 577 -14z"/>
<path d="M5355 7728 c-85 -52 -284 -149 -425 -209 -74 -31 -135 -60 -134 -63
1 -4 106 -232 234 -507 l233 -499 45 37 c121 99 333 197 495 229 71 14 88 21
84 33 -10 34 -470 1011 -476 1010 -3 0 -28 -14 -56 -31z"/>
<path d="M5815 6585 c-267 -59 -535 -247 -535 -376 0 -19 451 -1056 1231
-2828 677 -1538 1250 -2837 1273 -2886 65 -138 129 -183 284 -201 120 -13 330
43 478 127 91 52 214 163 260 235 43 68 68 154 60 209 -7 46 -90 219 -636
1325 -598 1213 -720 1459 -840 1705 -65 132 -226 461 -359 730 -133 270 -403
816 -599 1214 -355 721 -357 724 -397 742 -47 22 -133 23 -220 4z"/>
</g>
</svg>
